{"title":"10ml Love 2012 Hindi DvDRip XviD New Source Sample Included ~ rD","uid":8141931,"size":733833076,"categoryP":"video","categoryS":"movies","magnet":"?xt=urn:btih:d52fcbcfc51985687c525bdc5a17d3611135cb0a&amp;dn=10ml+Love+2012+Hindi+DvDRip+XviD+New+Source+Sample+Included+%7E+rD&amp;tr=udp%3A%2F%2Ftracker.openbittorrent.com%3A80&amp;tr=udp%3A%2F%2Fopen.demonii.com%3A1337&amp;tr=udp%3A%2F%2Ftracker.coppersurfer.tk%3A6969&amp;tr=udp%3A%2F%2Fexodus.desync.com%3A6969","seeders":1,"leechers":3,"uploader":"basicssom","files":2,"time":1360833690,"description":"10ml Love 2012 Hindi Movies DvDRip XviD New Source Sample Included ~ rDX\n\nScreen Shots :\n &lt;a href=&quot;\nhttp://myimghosting.serveftp.com/10mlLove.html&quot; rel=&quot;nofollow&quot; target=&quot;_NEW&quot;&gt;\nhttp://myimghosting.serveftp.com/10mlLove.html&lt;/a&gt;\n &lt;a href=&quot;\nhttp://myimghost.cwahi.net/10mlLove.html&quot; rel=&quot;nofollow&quot; target=&quot;_NEW&quot;&gt;\nhttp://myimghost.cwahi.net/10mlLove.html&lt;/a&gt;\n\n\nFormat                                   : AVI\nFormat/Info                              : Audio Video Interleave\nFile size                                : 688 MiB\nDuration                                 : 1h 23mn\nOverall bit rate mode                    : Variable\nOverall bit rate                         : 1 153 Kbps\nWriting library                          : MPlayer\n\nVideo\nID                                       : 0\nFormat                                   : MPEG-4 Visual\nFormat profile                           : Advanced Simple@L5\nFormat settings, BVOP                    : 1\nFormat settings, QPel                    : No\nFormat settings, GMC                     : No warppoints\nFormat settings, Matrix                  : Custom\nCodec ID                                 : XVID\nCodec ID/Hint                            : XviD\nDuration                                 : 1h 23mn\nBit rate                                 : 1 045 Kbps\nWidth                                    : 656 pixels\nHeight                                   : 320 pixels\nDisplay aspect ratio                     : 2.050\nFrame rate                               : 25.000 fps\nColor space                              : YUV\nChroma subsampling                       : 4:2:0\nBit depth                                : 8 bits\nScan type                                : Progressive\nCompression mode                         : Lossy\nBits/(Pixel*Frame)                       : 0.199\nStream size                              : 624 MiB (91%)\nWriting library                          : XviD 1.2.1 (UTC 2008-12-04)\n\nAudio\nID                                       : 1\nFormat                                   : MPEG Audio\nFormat version                           : Version 1\nFormat profile                           : Layer 3\nMode                                     : Joint stereo\nMode extension                           : MS Stereo\nCodec ID                                 : 55\nCodec ID/Hint                            : MP3\nDuration                                 : 1h 23mn\nBit rate mode                            : Variable\nBit rate                                 : 96.0 Kbps\nChannel(s)                               : 2 channels\nSampling rate                            : 32.0 KHz\nCompression mode                         : Lossy\nStream size                              : 58.0 MiB (8%)\nAlignment                                : Aligned on interleaves\nInterleave, duration                     : 36 ms (0.90 video frame)\nInterleave, preload duration             : 462 ms","torrent":{"xt":"urn:btih:d52fcbcfc51985687c525bdc5a17d3611135cb0a","amp;dn":"10ml+Love+2012+Hindi+DvDRip+XviD+New+Source+Sample+Included+%7E+rD","amp;tr":["udp%3A%2F%2Ftracker.openbittorrent.com%3A80","udp%3A%2F%2Fopen.demonii.com%3A1337","udp%3A%2F%2Ftracker.coppersurfer.tk%3A6969","udp%3A%2F%2Fexodus.desync.com%3A6969"],"infoHash":"d52fcbcfc51985687c525bdc5a17d3611135cb0a","infoHashBuffer":{"type":"Buffer","data":[213,47,203,207,197,25,133,104,124,82,91,220,90,23,211,97,17,53,203,10]},"announce":[],"urlList":[]}}